<mxfile host="app.diagrams.net" modified="2023-10-24T09:26:09.607Z" agent="Mozilla/5.0 (Windows NT 10.0; Win64; x64) AppleWebKit/537.36 (KHTML, like Gecko) Chrome/118.0.0.0 Safari/537.36 Edg/118.0.2088.57" etag="2A7HpqZ2QpFAy8rcb8wU" version="22.0.6" type="device">
  <diagram id="C5RBs43oDa-KdzZeNtuy" name="Page-1">
    <mxGraphModel dx="-2913" dy="4864" grid="1" gridSize="10" guides="1" tooltips="1" connect="1" arrows="1" fold="1" page="1" pageScale="1" pageWidth="827" pageHeight="1169" math="0" shadow="0">
      <root>
        <mxCell id="WIyWlLk6GJQsqaUBKTNV-0" />
        <mxCell id="WIyWlLk6GJQsqaUBKTNV-1" parent="WIyWlLk6GJQsqaUBKTNV-0" />
        <mxCell id="bTsdY4HcsBTZkOIxfHCk-0" value="&lt;&lt;enumeration&gt;&gt;&#xa;ColorPalette" style="swimlane;fontStyle=1;align=center;verticalAlign=top;childLayout=stackLayout;horizontal=1;startSize=40;horizontalStack=0;resizeParent=1;resizeParentMax=0;resizeLast=0;collapsible=1;marginBottom=0;labelBackgroundColor=none;fillColor=#d5e8d4;strokeColor=#82b366;" parent="WIyWlLk6GJQsqaUBKTNV-1" vertex="1">
          <mxGeometry x="5760" y="-1170" width="180" height="150" as="geometry" />
        </mxCell>
        <mxCell id="bTsdY4HcsBTZkOIxfHCk-1" value="RAINBOW&#xa;LINEAR&#xa;SINUSOIDAL" style="text;strokeColor=none;fillColor=none;align=left;verticalAlign=top;spacingLeft=4;spacingRight=4;overflow=hidden;rotatable=0;points=[[0,0.5],[1,0.5]];portConstraint=eastwest;labelBackgroundColor=none;" parent="bTsdY4HcsBTZkOIxfHCk-0" vertex="1">
          <mxGeometry y="40" width="180" height="60" as="geometry" />
        </mxCell>
        <mxCell id="bTsdY4HcsBTZkOIxfHCk-2" value="" style="line;strokeWidth=1;fillColor=none;align=left;verticalAlign=middle;spacingTop=-1;spacingLeft=3;spacingRight=3;rotatable=0;labelPosition=right;points=[];portConstraint=eastwest;labelBackgroundColor=none;" parent="bTsdY4HcsBTZkOIxfHCk-0" vertex="1">
          <mxGeometry y="100" width="180" height="8" as="geometry" />
        </mxCell>
        <mxCell id="bTsdY4HcsBTZkOIxfHCk-3" value="(-) ColorPalette()" style="text;strokeColor=none;fillColor=none;align=left;verticalAlign=top;spacingLeft=4;spacingRight=4;overflow=hidden;rotatable=0;points=[[0,0.5],[1,0.5]];portConstraint=eastwest;labelBackgroundColor=none;whiteSpace=wrap;" parent="bTsdY4HcsBTZkOIxfHCk-0" vertex="1">
          <mxGeometry y="108" width="180" height="42" as="geometry" />
        </mxCell>
        <mxCell id="bTsdY4HcsBTZkOIxfHCk-4" value="ColorsFactory" style="swimlane;fontStyle=1;align=center;verticalAlign=top;childLayout=stackLayout;horizontal=1;startSize=40;horizontalStack=0;resizeParent=1;resizeParentMax=0;resizeLast=0;collapsible=1;marginBottom=0;movable=1;resizable=1;rotatable=1;deletable=1;editable=1;locked=0;connectable=1;fillColor=#eeeeee;strokeColor=#36393d;" parent="WIyWlLk6GJQsqaUBKTNV-1" vertex="1">
          <mxGeometry x="6026" y="-1360" width="210" height="210" as="geometry" />
        </mxCell>
        <mxCell id="bTsdY4HcsBTZkOIxfHCk-5" value="(-) instance: ColorsFactory" style="text;strokeColor=none;fillColor=none;align=left;verticalAlign=top;spacingLeft=4;spacingRight=4;overflow=hidden;rotatable=0;points=[[0,0.5],[1,0.5]];portConstraint=eastwest;" parent="bTsdY4HcsBTZkOIxfHCk-4" vertex="1">
          <mxGeometry y="40" width="210" height="30" as="geometry" />
        </mxCell>
        <mxCell id="bTsdY4HcsBTZkOIxfHCk-6" value="" style="line;strokeWidth=1;fillColor=none;align=left;verticalAlign=middle;spacingTop=-1;spacingLeft=3;spacingRight=3;rotatable=0;labelPosition=right;points=[];portConstraint=eastwest;strokeColor=inherit;" parent="bTsdY4HcsBTZkOIxfHCk-4" vertex="1">
          <mxGeometry y="70" width="210" height="8" as="geometry" />
        </mxCell>
        <mxCell id="bTsdY4HcsBTZkOIxfHCk-7" value="(-) ColorsFactory()&#xa;(+) getInstance(): ColorsFactory &lt;static&gt;&#xa;(+) create(colorPalette:ColorPalette, colorsNum: int): List&lt;Autodesk.Revit.DB.Color&gt;()&#xa;(-) rainbowColors(): List&lt;Autodesk.Revit.DB.Color&gt;()" style="text;strokeColor=none;fillColor=none;align=left;verticalAlign=top;spacingLeft=4;spacingRight=4;overflow=hidden;rotatable=0;points=[[0,0.5],[1,0.5]];portConstraint=eastwest;whiteSpace=wrap;" parent="bTsdY4HcsBTZkOIxfHCk-4" vertex="1">
          <mxGeometry y="78" width="210" height="132" as="geometry" />
        </mxCell>
        <mxCell id="bTsdY4HcsBTZkOIxfHCk-8" value="OverrideGraphicsFactory" style="swimlane;fontStyle=1;align=center;verticalAlign=top;childLayout=stackLayout;horizontal=1;startSize=40;horizontalStack=0;resizeParent=1;resizeParentMax=0;resizeLast=0;collapsible=1;marginBottom=0;movable=1;resizable=1;rotatable=1;deletable=1;editable=1;locked=0;connectable=1;fillColor=#eeeeee;strokeColor=#36393d;" parent="WIyWlLk6GJQsqaUBKTNV-1" vertex="1">
          <mxGeometry x="6380" y="-1360" width="215" height="210" as="geometry" />
        </mxCell>
        <mxCell id="bTsdY4HcsBTZkOIxfHCk-9" value="(-) instance: OverrideGraphicsFactory" style="text;strokeColor=none;fillColor=none;align=left;verticalAlign=top;spacingLeft=4;spacingRight=4;overflow=hidden;rotatable=0;points=[[0,0.5],[1,0.5]];portConstraint=eastwest;" parent="bTsdY4HcsBTZkOIxfHCk-8" vertex="1">
          <mxGeometry y="40" width="215" height="30" as="geometry" />
        </mxCell>
        <mxCell id="bTsdY4HcsBTZkOIxfHCk-10" value="" style="line;strokeWidth=1;fillColor=none;align=left;verticalAlign=middle;spacingTop=-1;spacingLeft=3;spacingRight=3;rotatable=0;labelPosition=right;points=[];portConstraint=eastwest;strokeColor=inherit;" parent="bTsdY4HcsBTZkOIxfHCk-8" vertex="1">
          <mxGeometry y="70" width="215" height="8" as="geometry" />
        </mxCell>
        <mxCell id="bTsdY4HcsBTZkOIxfHCk-11" value="(-) OverrideGraphicsFactory()&#xa;(+) getInstance(): OverrideGraphicsFactory &lt;static&gt;&#xa;(+) create(patternId:ElementId, color:Autodesk.Revit.DB.Color): OverrideGraphicsSettings" style="text;strokeColor=none;fillColor=none;align=left;verticalAlign=top;spacingLeft=4;spacingRight=4;overflow=hidden;rotatable=0;points=[[0,0.5],[1,0.5]];portConstraint=eastwest;whiteSpace=wrap;" parent="bTsdY4HcsBTZkOIxfHCk-8" vertex="1">
          <mxGeometry y="78" width="215" height="132" as="geometry" />
        </mxCell>
        <mxCell id="bTsdY4HcsBTZkOIxfHCk-12" value="RibbonItemFactory" style="swimlane;fontStyle=1;align=center;verticalAlign=top;childLayout=stackLayout;horizontal=1;startSize=40;horizontalStack=0;resizeParent=1;resizeParentMax=0;resizeLast=0;collapsible=1;marginBottom=0;movable=1;resizable=1;rotatable=1;deletable=1;editable=1;locked=0;connectable=1;fillColor=#eeeeee;strokeColor=#36393d;" parent="WIyWlLk6GJQsqaUBKTNV-1" vertex="1">
          <mxGeometry x="5260" y="-1500" width="280" height="400" as="geometry" />
        </mxCell>
        <mxCell id="bTsdY4HcsBTZkOIxfHCk-13" value="(-) instance: RibbonItemFactory" style="text;strokeColor=none;fillColor=none;align=left;verticalAlign=top;spacingLeft=4;spacingRight=4;overflow=hidden;rotatable=0;points=[[0,0.5],[1,0.5]];portConstraint=eastwest;" parent="bTsdY4HcsBTZkOIxfHCk-12" vertex="1">
          <mxGeometry y="40" width="280" height="30" as="geometry" />
        </mxCell>
        <mxCell id="bTsdY4HcsBTZkOIxfHCk-14" value="" style="line;strokeWidth=1;fillColor=none;align=left;verticalAlign=middle;spacingTop=-1;spacingLeft=3;spacingRight=3;rotatable=0;labelPosition=right;points=[];portConstraint=eastwest;strokeColor=inherit;" parent="bTsdY4HcsBTZkOIxfHCk-12" vertex="1">
          <mxGeometry y="70" width="280" height="8" as="geometry" />
        </mxCell>
        <mxCell id="bTsdY4HcsBTZkOIxfHCk-15" value="(-) RibbonItemFactory()&#xa;(+) getInstance(): RibbonItemFactory &lt;static&gt;&#xa;(+) create(tabPanel:RibbonPanel, ribItemType:RibbonItemType, displayName:String, imagePath:String, largeImagePath:String, toolTipImagePath:String, toolTipText:String, longDescription:String, assemblyFullPath:String, className:String): RibbonItem&#xa;(-) createPushButton(tabPanel:RibbonPanel, ribItemType:RibbonItemType, displayName:String, imagePath:String, largeImagePath:String, toolTipImagePath:String, toolTipText:String, longDescription:String, assemblyFullPath:String, className:String): PushButton&#xa;(-) createPullDownButton(): PulldownButton&#xa;(-) createToggleButton(): ToggleButton&#xa;(-) createSplitButton(): SplitButton&#xa;(-) createTextBox(): TextBox&#xa;(-) createComboBox(): ComboBox&#xa;(-) createComboBoxMember():ComboBoxMember&#xa;(-) createRadioButtonGroup(): RadioButtonGroup" style="text;strokeColor=none;fillColor=none;align=left;verticalAlign=top;spacingLeft=4;spacingRight=4;overflow=hidden;rotatable=0;points=[[0,0.5],[1,0.5]];portConstraint=eastwest;whiteSpace=wrap;" parent="bTsdY4HcsBTZkOIxfHCk-12" vertex="1">
          <mxGeometry y="78" width="280" height="322" as="geometry" />
        </mxCell>
        <mxCell id="bTsdY4HcsBTZkOIxfHCk-16" value="RibbonTabPanelFactory" style="swimlane;fontStyle=1;align=center;verticalAlign=top;childLayout=stackLayout;horizontal=1;startSize=40;horizontalStack=0;resizeParent=1;resizeParentMax=0;resizeLast=0;collapsible=1;marginBottom=0;movable=1;resizable=1;rotatable=1;deletable=1;editable=1;locked=0;connectable=1;fillColor=#eeeeee;strokeColor=#36393d;" parent="WIyWlLk6GJQsqaUBKTNV-1" vertex="1">
          <mxGeometry x="5560" y="-1500" width="280" height="160" as="geometry" />
        </mxCell>
        <mxCell id="bTsdY4HcsBTZkOIxfHCk-17" value="(-) instance: RibbonTabPanelFactory" style="text;strokeColor=none;fillColor=none;align=left;verticalAlign=top;spacingLeft=4;spacingRight=4;overflow=hidden;rotatable=0;points=[[0,0.5],[1,0.5]];portConstraint=eastwest;" parent="bTsdY4HcsBTZkOIxfHCk-16" vertex="1">
          <mxGeometry y="40" width="280" height="30" as="geometry" />
        </mxCell>
        <mxCell id="bTsdY4HcsBTZkOIxfHCk-18" value="" style="line;strokeWidth=1;fillColor=none;align=left;verticalAlign=middle;spacingTop=-1;spacingLeft=3;spacingRight=3;rotatable=0;labelPosition=right;points=[];portConstraint=eastwest;strokeColor=inherit;" parent="bTsdY4HcsBTZkOIxfHCk-16" vertex="1">
          <mxGeometry y="70" width="280" height="8" as="geometry" />
        </mxCell>
        <mxCell id="bTsdY4HcsBTZkOIxfHCk-19" value="(-) RibbonTabPanelFactory()&#xa;(+) getInstance(): RibbonTabPanelFactory &lt;static&gt;&#xa;(+) create(application:UIControlledApplicaton, tabName: String, panelName: String" style="text;strokeColor=none;fillColor=none;align=left;verticalAlign=top;spacingLeft=4;spacingRight=4;overflow=hidden;rotatable=0;points=[[0,0.5],[1,0.5]];portConstraint=eastwest;whiteSpace=wrap;" parent="bTsdY4HcsBTZkOIxfHCk-16" vertex="1">
          <mxGeometry y="78" width="280" height="82" as="geometry" />
        </mxCell>
        <mxCell id="bTsdY4HcsBTZkOIxfHCk-20" value="RibbonUI" style="swimlane;fontStyle=1;align=center;verticalAlign=top;childLayout=stackLayout;horizontal=1;startSize=40;horizontalStack=0;resizeParent=1;resizeParentMax=0;resizeLast=0;collapsible=1;marginBottom=0;movable=1;resizable=1;rotatable=1;deletable=1;editable=1;locked=0;connectable=1;fillColor=#eeeeee;strokeColor=#36393d;" parent="WIyWlLk6GJQsqaUBKTNV-1" vertex="1">
          <mxGeometry x="5690" y="-1830" width="240" height="230" as="geometry" />
        </mxCell>
        <mxCell id="bTsdY4HcsBTZkOIxfHCk-21" value="(-) projectFolderPath: String&#xa;(-) imagesFolderPath: String&#xa;(-) textFolderPath: String&#xa;(-) ribbonPanel: RibbonPanel" style="text;strokeColor=none;fillColor=none;align=left;verticalAlign=top;spacingLeft=4;spacingRight=4;overflow=hidden;rotatable=0;points=[[0,0.5],[1,0.5]];portConstraint=eastwest;" parent="bTsdY4HcsBTZkOIxfHCk-20" vertex="1">
          <mxGeometry y="40" width="240" height="60" as="geometry" />
        </mxCell>
        <mxCell id="bTsdY4HcsBTZkOIxfHCk-22" value="" style="line;strokeWidth=1;fillColor=none;align=left;verticalAlign=middle;spacingTop=-1;spacingLeft=3;spacingRight=3;rotatable=0;labelPosition=right;points=[];portConstraint=eastwest;strokeColor=inherit;" parent="bTsdY4HcsBTZkOIxfHCk-20" vertex="1">
          <mxGeometry y="100" width="240" height="8" as="geometry" />
        </mxCell>
        <mxCell id="bTsdY4HcsBTZkOIxfHCk-23" value="(+) RibbonUI()&#xa;(+) OnStartup&#xa;(application:UIControlledApplication):&#xa;Autodesk.Revit.UI.Result&#xa;(+) OnShutdown &#xa;(application:UIControlledApplication):&#xa;Autodesk.Revit.UI.Result" style="text;strokeColor=none;fillColor=none;align=left;verticalAlign=top;spacingLeft=4;spacingRight=4;overflow=hidden;rotatable=0;points=[[0,0.5],[1,0.5]];portConstraint=eastwest;whiteSpace=wrap;" parent="bTsdY4HcsBTZkOIxfHCk-20" vertex="1">
          <mxGeometry y="108" width="240" height="122" as="geometry" />
        </mxCell>
        <mxCell id="bTsdY4HcsBTZkOIxfHCk-24" value="&lt;p style=&quot;margin: 0px ; margin-top: 4px ; text-align: center&quot;&gt;&lt;i&gt;&amp;lt;&amp;lt;Interface&amp;gt;&amp;gt;&lt;/i&gt;&lt;br&gt;&lt;b&gt;Autodesk.Revit.UI.&lt;/b&gt;&lt;/p&gt;&lt;p style=&quot;margin: 0px ; margin-top: 4px ; text-align: center&quot;&gt;&lt;b&gt;IExternalApplication&lt;/b&gt;&lt;/p&gt;&lt;hr size=&quot;1&quot;&gt;&lt;p style=&quot;margin: 0px ; margin-left: 4px&quot;&gt;(+) OnStartup&lt;/p&gt;&lt;p style=&quot;margin: 0px ; margin-left: 4px&quot;&gt;(application:UIControlledApplication):&lt;span style=&quot;background-color: initial;&quot;&gt;Autodesk.Revit.UI.Result&lt;/span&gt;&lt;/p&gt;&lt;p style=&quot;margin: 0px ; margin-left: 4px&quot;&gt;&lt;span style=&quot;background-color: initial;&quot;&gt;(+) OnShutdown&lt;/span&gt;&lt;/p&gt;&amp;nbsp;(application:UIControlledApplication):Autodesk.Revit.UI.Result" style="verticalAlign=top;align=left;overflow=fill;fontSize=12;fontFamily=Helvetica;html=1;fillColor=#FFE3FD;strokeColor=#36393d;" parent="WIyWlLk6GJQsqaUBKTNV-1" vertex="1">
          <mxGeometry x="5753" y="-2050" width="340" height="126" as="geometry" />
        </mxCell>
        <mxCell id="bTsdY4HcsBTZkOIxfHCk-25" value="" style="endArrow=block;dashed=1;endFill=0;endSize=12;html=1;rounded=0;exitX=0.5;exitY=0;exitDx=0;exitDy=0;entryX=0.5;entryY=1;entryDx=0;entryDy=0;" parent="WIyWlLk6GJQsqaUBKTNV-1" source="bTsdY4HcsBTZkOIxfHCk-20" target="bTsdY4HcsBTZkOIxfHCk-24" edge="1">
          <mxGeometry width="160" relative="1" as="geometry">
            <mxPoint x="5640" y="-1850" as="sourcePoint" />
            <mxPoint x="5925" y="-1910" as="targetPoint" />
            <Array as="points">
              <mxPoint x="5810" y="-1870" />
              <mxPoint x="5923" y="-1870" />
            </Array>
          </mxGeometry>
        </mxCell>
        <mxCell id="bTsdY4HcsBTZkOIxfHCk-28" value="Command" style="swimlane;fontStyle=1;align=center;verticalAlign=top;childLayout=stackLayout;horizontal=1;startSize=40;horizontalStack=0;resizeParent=1;resizeParentMax=0;resizeLast=0;collapsible=1;marginBottom=0;movable=1;resizable=1;rotatable=1;deletable=1;editable=1;locked=0;connectable=1;fillColor=#eeeeee;strokeColor=#36393d;" parent="WIyWlLk6GJQsqaUBKTNV-1" vertex="1">
          <mxGeometry x="6170" y="-1660" width="290" height="200" as="geometry" />
        </mxCell>
        <mxCell id="bTsdY4HcsBTZkOIxfHCk-29" value="(-) uiApp: Autodesk.Revit.UI.UIApplication&#xa;(-) uiDoc: Autodesk.Revit.UI.UIDocument&#xa;(-) doc: Autodesk.Revit.DB.Document" style="text;strokeColor=none;fillColor=none;align=left;verticalAlign=top;spacingLeft=4;spacingRight=4;overflow=hidden;rotatable=0;points=[[0,0.5],[1,0.5]];portConstraint=eastwest;" parent="bTsdY4HcsBTZkOIxfHCk-28" vertex="1">
          <mxGeometry y="40" width="290" height="60" as="geometry" />
        </mxCell>
        <mxCell id="bTsdY4HcsBTZkOIxfHCk-30" value="" style="line;strokeWidth=1;fillColor=none;align=left;verticalAlign=middle;spacingTop=-1;spacingLeft=3;spacingRight=3;rotatable=0;labelPosition=right;points=[];portConstraint=eastwest;strokeColor=inherit;" parent="bTsdY4HcsBTZkOIxfHCk-28" vertex="1">
          <mxGeometry y="100" width="290" height="8" as="geometry" />
        </mxCell>
        <mxCell id="bTsdY4HcsBTZkOIxfHCk-31" value="(+) Command()&#xa;(+)Execute(commandData:ExternalCommandData, &#xa;message:String, elements:ElementSet): &#xa;Autodesk.Revit.UI.Result&#xa;(-) createNewFilter(): void()" style="text;strokeColor=none;fillColor=none;align=left;verticalAlign=top;spacingLeft=4;spacingRight=4;overflow=hidden;rotatable=0;points=[[0,0.5],[1,0.5]];portConstraint=eastwest;whiteSpace=wrap;" parent="bTsdY4HcsBTZkOIxfHCk-28" vertex="1">
          <mxGeometry y="108" width="290" height="92" as="geometry" />
        </mxCell>
        <mxCell id="bTsdY4HcsBTZkOIxfHCk-32" value="&lt;p style=&quot;margin: 0px ; margin-top: 4px ; text-align: center&quot;&gt;&lt;i&gt;&amp;lt;&amp;lt;Interface&amp;gt;&amp;gt;&lt;/i&gt;&lt;br&gt;&lt;b&gt;Autodesk.Revit.UI.&lt;/b&gt;&lt;/p&gt;&lt;p style=&quot;margin: 0px ; margin-top: 4px ; text-align: center&quot;&gt;&lt;b&gt;IExternalCommand&lt;/b&gt;&lt;/p&gt;&lt;hr size=&quot;1&quot;&gt;&lt;p style=&quot;margin: 0px ; margin-left: 4px&quot;&gt;(+) Execute(commandData:ExternalCommandData,&amp;nbsp;&lt;/p&gt;&lt;p style=&quot;margin: 0px ; margin-left: 4px&quot;&gt;message:String, elements:ElementSet):&amp;nbsp;&lt;/p&gt;&lt;p style=&quot;margin: 0px ; margin-left: 4px&quot;&gt;Autodesk.Revit.UI.Result&lt;/p&gt;&lt;p style=&quot;margin: 0px ; margin-left: 4px&quot;&gt;&lt;/p&gt;" style="verticalAlign=top;align=left;overflow=fill;fontSize=12;fontFamily=Helvetica;html=1;fillColor=#FFE3FD;strokeColor=#36393d;" parent="WIyWlLk6GJQsqaUBKTNV-1" vertex="1">
          <mxGeometry x="6260" y="-1870" width="287" height="126" as="geometry" />
        </mxCell>
        <mxCell id="bTsdY4HcsBTZkOIxfHCk-33" value="" style="endArrow=block;dashed=1;endFill=0;endSize=12;html=1;rounded=0;exitX=0.5;exitY=0;exitDx=0;exitDy=0;entryX=0.5;entryY=1;entryDx=0;entryDy=0;" parent="WIyWlLk6GJQsqaUBKTNV-1" source="bTsdY4HcsBTZkOIxfHCk-28" target="bTsdY4HcsBTZkOIxfHCk-32" edge="1">
          <mxGeometry width="160" relative="1" as="geometry">
            <mxPoint x="6120" y="-1664" as="sourcePoint" />
            <mxPoint x="6405" y="-1724" as="targetPoint" />
            <Array as="points">
              <mxPoint x="6315" y="-1684" />
              <mxPoint x="6360" y="-1684" />
              <mxPoint x="6403" y="-1684" />
            </Array>
          </mxGeometry>
        </mxCell>
        <mxCell id="bTsdY4HcsBTZkOIxfHCk-35" value="Use" style="endArrow=open;endSize=12;dashed=1;html=1;rounded=0;entryX=0.998;entryY=0.34;entryDx=0;entryDy=0;entryPerimeter=0;" parent="WIyWlLk6GJQsqaUBKTNV-1" source="bTsdY4HcsBTZkOIxfHCk-4" target="bTsdY4HcsBTZkOIxfHCk-1" edge="1">
          <mxGeometry width="160" relative="1" as="geometry">
            <mxPoint x="6212" y="-1380" as="sourcePoint" />
            <mxPoint x="6342" y="-1331" as="targetPoint" />
            <Array as="points" />
          </mxGeometry>
        </mxCell>
        <mxCell id="bTsdY4HcsBTZkOIxfHCk-36" value="Use" style="endArrow=open;endSize=12;dashed=1;html=1;rounded=0;entryX=-0.016;entryY=0.122;entryDx=0;entryDy=0;entryPerimeter=0;exitX=1.01;exitY=0.093;exitDx=0;exitDy=0;exitPerimeter=0;" parent="WIyWlLk6GJQsqaUBKTNV-1" source="bTsdY4HcsBTZkOIxfHCk-20" target="bTsdY4HcsBTZkOIxfHCk-28" edge="1">
          <mxGeometry width="160" relative="1" as="geometry">
            <mxPoint x="6108" y="-1618" as="sourcePoint" />
            <mxPoint x="6020" y="-1570" as="targetPoint" />
            <Array as="points" />
          </mxGeometry>
        </mxCell>
        <mxCell id="bTsdY4HcsBTZkOIxfHCk-37" value="Use" style="endArrow=open;endSize=12;dashed=1;html=1;rounded=0;entryX=0.531;entryY=0.007;entryDx=0;entryDy=0;entryPerimeter=0;exitX=0.524;exitY=0.986;exitDx=0;exitDy=0;exitPerimeter=0;" parent="WIyWlLk6GJQsqaUBKTNV-1" source="bTsdY4HcsBTZkOIxfHCk-31" target="bTsdY4HcsBTZkOIxfHCk-8" edge="1">
          <mxGeometry width="160" relative="1" as="geometry">
            <mxPoint x="6340" y="-1430" as="sourcePoint" />
            <mxPoint x="6573" y="-1257" as="targetPoint" />
            <Array as="points" />
          </mxGeometry>
        </mxCell>
        <mxCell id="bTsdY4HcsBTZkOIxfHCk-38" value="Use" style="endArrow=open;endSize=12;dashed=1;html=1;rounded=0;exitX=0.507;exitY=1.031;exitDx=0;exitDy=0;exitPerimeter=0;entryX=0.675;entryY=0.004;entryDx=0;entryDy=0;entryPerimeter=0;" parent="WIyWlLk6GJQsqaUBKTNV-1" source="bTsdY4HcsBTZkOIxfHCk-31" target="bTsdY4HcsBTZkOIxfHCk-4" edge="1">
          <mxGeometry width="160" relative="1" as="geometry">
            <mxPoint x="6330" y="-1450" as="sourcePoint" />
            <mxPoint x="6300" y="-1200" as="targetPoint" />
            <Array as="points" />
          </mxGeometry>
        </mxCell>
        <mxCell id="bTsdY4HcsBTZkOIxfHCk-39" value="Use" style="endArrow=open;endSize=12;dashed=1;html=1;rounded=0;exitX=0.463;exitY=0.992;exitDx=0;exitDy=0;exitPerimeter=0;entryX=0.596;entryY=-0.019;entryDx=0;entryDy=0;entryPerimeter=0;" parent="WIyWlLk6GJQsqaUBKTNV-1" source="bTsdY4HcsBTZkOIxfHCk-23" target="bTsdY4HcsBTZkOIxfHCk-16" edge="1">
          <mxGeometry width="160" relative="1" as="geometry">
            <mxPoint x="5959" y="-1550" as="sourcePoint" />
            <mxPoint x="5810" y="-1452" as="targetPoint" />
            <Array as="points" />
          </mxGeometry>
        </mxCell>
        <mxCell id="bTsdY4HcsBTZkOIxfHCk-40" value="Use" style="endArrow=open;endSize=12;dashed=1;html=1;rounded=0;exitX=0.4;exitY=1.008;exitDx=0;exitDy=0;exitPerimeter=0;entryX=0.804;entryY=0.003;entryDx=0;entryDy=0;entryPerimeter=0;" parent="WIyWlLk6GJQsqaUBKTNV-1" source="bTsdY4HcsBTZkOIxfHCk-23" target="bTsdY4HcsBTZkOIxfHCk-12" edge="1">
          <mxGeometry width="160" relative="1" as="geometry">
            <mxPoint x="5811" y="-1591" as="sourcePoint" />
            <mxPoint x="5737" y="-1493" as="targetPoint" />
            <Array as="points" />
          </mxGeometry>
        </mxCell>
        <mxCell id="bTsdY4HcsBTZkOIxfHCk-44" value="&lt;i&gt;&lt;b&gt;SINGLETON PATTERN&lt;/b&gt;&lt;/i&gt;" style="html=1;labelBackgroundColor=none;fillColor=#d5e8d4;strokeColor=#000000;glass=0;sketch=1;gradientColor=#97d077;" parent="WIyWlLk6GJQsqaUBKTNV-1" vertex="1">
          <mxGeometry x="5050" y="-1500" width="170" height="50" as="geometry" />
        </mxCell>
        <mxCell id="bTsdY4HcsBTZkOIxfHCk-43" value="&lt;i&gt;&lt;b&gt;FACTORY PATTERN&lt;/b&gt;&lt;/i&gt;" style="html=1;labelBackgroundColor=none;fillColor=#f8cecc;strokeColor=#000000;gradientColor=#ea6b66;glass=0;sketch=1;" parent="WIyWlLk6GJQsqaUBKTNV-1" vertex="1">
          <mxGeometry x="5050" y="-1440" width="170" height="50" as="geometry" />
        </mxCell>
        <mxCell id="bTsdY4HcsBTZkOIxfHCk-45" value="&lt;i&gt;&lt;b&gt;SINGLETON PATTERN&lt;/b&gt;&lt;/i&gt;" style="html=1;labelBackgroundColor=none;fillColor=#d5e8d4;strokeColor=#000000;glass=0;sketch=1;gradientColor=#97d077;" parent="WIyWlLk6GJQsqaUBKTNV-1" vertex="1">
          <mxGeometry x="6630" y="-1360" width="170" height="50" as="geometry" />
        </mxCell>
        <mxCell id="bTsdY4HcsBTZkOIxfHCk-46" value="&lt;i&gt;&lt;b&gt;FACTORY PATTERN&lt;/b&gt;&lt;/i&gt;" style="html=1;labelBackgroundColor=none;fillColor=#f8cecc;strokeColor=#000000;gradientColor=#ea6b66;glass=0;sketch=1;" parent="WIyWlLk6GJQsqaUBKTNV-1" vertex="1">
          <mxGeometry x="6630" y="-1300" width="170" height="50" as="geometry" />
        </mxCell>
        <mxCell id="bTsdY4HcsBTZkOIxfHCk-47" value="Use" style="endArrow=open;endSize=12;dashed=1;html=1;rounded=0;entryX=0.5;entryY=0;entryDx=0;entryDy=0;" parent="WIyWlLk6GJQsqaUBKTNV-1" source="bTsdY4HcsBTZkOIxfHCk-7" target="bTsdY4HcsBTZkOIxfHCk-49" edge="1">
          <mxGeometry width="160" relative="1" as="geometry">
            <mxPoint x="6153" y="-1130" as="sourcePoint" />
            <mxPoint x="6140" y="-1070" as="targetPoint" />
            <Array as="points" />
          </mxGeometry>
        </mxCell>
        <mxCell id="bTsdY4HcsBTZkOIxfHCk-48" value="Use" style="endArrow=open;endSize=12;dashed=1;html=1;rounded=0;exitX=0.5;exitY=1.012;exitDx=0;exitDy=0;exitPerimeter=0;entryX=0.5;entryY=0;entryDx=0;entryDy=0;" parent="WIyWlLk6GJQsqaUBKTNV-1" source="bTsdY4HcsBTZkOIxfHCk-11" target="bTsdY4HcsBTZkOIxfHCk-58" edge="1">
          <mxGeometry width="160" relative="1" as="geometry">
            <mxPoint x="6150" y="-1140" as="sourcePoint" />
            <mxPoint x="6450" y="-1080" as="targetPoint" />
            <Array as="points" />
          </mxGeometry>
        </mxCell>
        <mxCell id="bTsdY4HcsBTZkOIxfHCk-49" value="Autodesk.Revit.DB.&#xa;Color" style="swimlane;fontStyle=1;align=center;verticalAlign=top;childLayout=stackLayout;horizontal=1;startSize=40;horizontalStack=0;resizeParent=1;resizeParentMax=0;resizeLast=0;collapsible=1;marginBottom=0;movable=1;resizable=1;rotatable=1;deletable=1;editable=1;locked=0;connectable=1;fillColor=#eeeeee;strokeColor=#36393d;" parent="WIyWlLk6GJQsqaUBKTNV-1" vertex="1">
          <mxGeometry x="6026" y="-1030" width="209" height="40" as="geometry" />
        </mxCell>
        <mxCell id="bTsdY4HcsBTZkOIxfHCk-53" value="Autodesk.Revit.UI.&#xa;RibbonItem" style="swimlane;fontStyle=1;align=center;verticalAlign=top;childLayout=stackLayout;horizontal=1;startSize=40;horizontalStack=0;resizeParent=1;resizeParentMax=0;resizeLast=0;collapsible=1;marginBottom=0;movable=1;resizable=1;rotatable=1;deletable=1;editable=1;locked=0;connectable=1;fillColor=#eeeeee;strokeColor=#36393d;" parent="WIyWlLk6GJQsqaUBKTNV-1" vertex="1">
          <mxGeometry x="5290" y="-1010" width="209" height="40" as="geometry" />
        </mxCell>
        <mxCell id="bTsdY4HcsBTZkOIxfHCk-57" value="Use" style="endArrow=open;endSize=12;dashed=1;html=1;rounded=0;entryX=0.5;entryY=0;entryDx=0;entryDy=0;exitX=0.482;exitY=1.006;exitDx=0;exitDy=0;exitPerimeter=0;" parent="WIyWlLk6GJQsqaUBKTNV-1" source="bTsdY4HcsBTZkOIxfHCk-15" target="bTsdY4HcsBTZkOIxfHCk-53" edge="1">
          <mxGeometry width="160" relative="1" as="geometry">
            <mxPoint x="5499" y="-1080" as="sourcePoint" />
            <mxPoint x="5499" y="-960" as="targetPoint" />
            <Array as="points" />
          </mxGeometry>
        </mxCell>
        <mxCell id="bTsdY4HcsBTZkOIxfHCk-58" value="Autodesk.Revit.DB.&#xa;OverrideGraphicSettings" style="swimlane;fontStyle=1;align=center;verticalAlign=top;childLayout=stackLayout;horizontal=1;startSize=40;horizontalStack=0;resizeParent=1;resizeParentMax=0;resizeLast=0;collapsible=1;marginBottom=0;movable=1;resizable=1;rotatable=1;deletable=1;editable=1;locked=0;connectable=1;fillColor=#eeeeee;strokeColor=#36393d;" parent="WIyWlLk6GJQsqaUBKTNV-1" vertex="1">
          <mxGeometry x="6383" y="-1030" width="209" height="40" as="geometry" />
        </mxCell>
        <mxCell id="bTsdY4HcsBTZkOIxfHCk-59" value="Autodesk.Revit.UI.&#xa;RibbonPanel" style="swimlane;fontStyle=1;align=center;verticalAlign=top;childLayout=stackLayout;horizontal=1;startSize=40;horizontalStack=0;resizeParent=1;resizeParentMax=0;resizeLast=0;collapsible=1;marginBottom=0;movable=1;resizable=1;rotatable=1;deletable=1;editable=1;locked=0;connectable=1;fillColor=#eeeeee;strokeColor=#36393d;" parent="WIyWlLk6GJQsqaUBKTNV-1" vertex="1">
          <mxGeometry x="5590" y="-1260" width="209" height="40" as="geometry" />
        </mxCell>
        <mxCell id="bTsdY4HcsBTZkOIxfHCk-60" value="Use" style="endArrow=open;endSize=12;dashed=1;html=1;rounded=0;entryX=0.5;entryY=0;entryDx=0;entryDy=0;exitX=0.482;exitY=1.006;exitDx=0;exitDy=0;exitPerimeter=0;" parent="WIyWlLk6GJQsqaUBKTNV-1" target="bTsdY4HcsBTZkOIxfHCk-59" edge="1">
          <mxGeometry width="160" relative="1" as="geometry">
            <mxPoint x="5695" y="-1339" as="sourcePoint" />
            <mxPoint x="5799" y="-1201" as="targetPoint" />
            <Array as="points" />
          </mxGeometry>
        </mxCell>
        <mxCell id="bTsdY4HcsBTZkOIxfHCk-61" value="&lt;span style=&quot;font-size: 40px;&quot;&gt;&lt;b&gt;&lt;i&gt;UML CLASSES DIAGRAM&lt;/i&gt;&lt;/b&gt;&lt;/span&gt;" style="html=1;labelBackgroundColor=none;fillColor=#fff2cc;strokeColor=#000000;glass=0;sketch=1;gradientColor=#ffd966;" parent="WIyWlLk6GJQsqaUBKTNV-1" vertex="1">
          <mxGeometry x="5690" y="-2270" width="579" height="80" as="geometry" />
        </mxCell>
        <mxCell id="bTsdY4HcsBTZkOIxfHCk-62" value="&lt;b&gt;&lt;font style=&quot;font-size: 44px;&quot;&gt;Revit API Plugin&lt;br&gt;VIEWFILTERSTRANSFER&amp;nbsp;&lt;/font&gt;&lt;/b&gt;" style="rounded=1;whiteSpace=wrap;html=1;fillColor=#D2DDE7;strokeColor=#4C0099;gradientColor=#70C6FF;shadow=1;sketch=1;curveFitting=1;jiggle=2;glass=1;" parent="WIyWlLk6GJQsqaUBKTNV-1" vertex="1">
          <mxGeometry x="5639.5" y="-2510" width="680" height="124" as="geometry" />
        </mxCell>
      </root>
    </mxGraphModel>
  </diagram>
</mxfile>
